<svg width="500" height="143" viewBox="0 0 500 143" fill="none" xmlns="http://www.w3.org/2000/svg">
<path d="M62.3419 41.5609L83.1218 62.3419L62.3419 83.1218L41.5609 62.3419L62.3419 41.5609ZM109.098 77.9274L124.684 62.3419L62.3419 0L0 62.3419L62.3419 124.684L103.903 83.123L88.3173 67.5375L62.3419 93.5129L31.171 62.3419L62.3419 31.171L93.5129 62.3419L109.098 77.9274Z" fill="#7d12ff"/>
<path d="M198.448 102.55C196.349 106.158 193.582 108.964 190.148 110.968C186.714 112.971 182.946 113.973 178.846 113.973C175.219 113.973 171.737 113.07 168.401 111.262C165.065 109.455 162.465 107.22 160.601 104.558C158.742 101.896 157.503 99.2345 156.882 96.573C156.262 93.9115 155.952 90.8732 155.953 87.4581V37.134C155.953 34.4217 156.214 31.9357 156.737 29.6759C157.261 27.4161 159.001 23.8504 161.96 18.979C164.918 14.1076 170.69 11.6715 179.274 11.6706C183.035 11.6573 186.734 12.6285 190.003 14.4877C193.341 16.3657 195.868 18.663 197.586 21.3794C199.304 24.0958 200.424 26.6396 200.948 29.0109C201.491 31.5425 201.755 34.1258 201.737 36.7148V40.8643H188.263V36.7884C188.263 35.1391 188.191 33.8536 188.048 32.9321C187.905 32.0105 187.192 30.6282 185.91 28.7851C184.626 26.9411 182.367 26.0192 179.13 26.0192C175.419 26.0192 172.969 27.0497 171.781 29.1107C170.592 31.1717 169.902 32.7054 169.711 33.7118C169.509 34.857 169.414 36.0186 169.427 37.1814V87.5592C169.427 89.4721 169.498 90.9052 169.641 91.8584C169.784 92.8115 170.497 94.3448 171.781 96.4582C173.063 98.5717 175.466 99.6275 178.988 99.6259C182.793 99.6259 185.195 98.5712 186.194 96.462C187.193 94.3527 187.788 92.7953 187.978 91.7897C188.17 90.7842 188.265 89.3769 188.265 87.5679V69.9332H177.286V57.4573H201.739V87.5242C201.739 91.7353 201.501 94.7669 201.023 96.6192C200.546 98.4714 199.687 100.448 198.448 102.55Z" fill="#7d12ff"/>
<path d="M212.148 26.7665V12.5439H225.747V26.7665H212.148ZM212.148 113.225V40.8643H225.747V113.225H212.148Z" fill="#7d12ff"/>
<path d="M272.841 132.869C270.934 135.883 268.503 138.27 265.546 140.03C262.589 141.791 259.445 142.67 256.113 142.668C250.295 142.668 245.313 140.578 241.167 136.397C237.021 132.217 234.947 127.003 234.946 120.755H248.545C248.545 122.786 249.177 124.514 250.44 125.939C251.704 127.364 253.356 128.074 255.397 128.071C258.308 128.071 260.446 126.71 261.811 123.989C262.198 122.98 262.393 121.367 262.393 119.151V105.697C261.072 108.084 259.2 110.122 256.934 111.641C254.633 113.196 252.19 113.973 249.604 113.973C246.865 113.986 244.186 113.173 241.915 111.64C239.568 110.085 237.892 108.304 236.886 106.297C235.881 104.29 235.303 102.684 235.154 101.48C235.009 100.275 234.937 98.419 234.939 95.9105V56.171C234.922 54.4935 235.139 52.8218 235.584 51.2043C236.016 49.6997 237.213 47.5169 239.177 44.6557C241.141 41.7946 244.566 40.3644 249.452 40.3652C251.991 40.3516 254.481 41.0552 256.637 42.3951C258.84 43.7475 260.757 45.6251 262.386 48.028V41.3633H275.985V119.151C275.985 121.964 275.771 124.452 275.342 126.613C274.891 128.831 274.043 130.951 272.841 132.869ZM261.077 57.9101C259.619 55.5297 257.724 54.3391 255.392 54.3383C252.671 54.3383 250.898 55.1667 250.071 56.8235C249.244 58.4803 248.783 59.7358 248.686 60.59C248.588 61.4652 248.539 62.3454 248.54 63.2261V90.4898C248.54 91.897 248.613 93.0269 248.759 93.8795C248.904 94.732 249.463 95.8615 250.435 97.2679C251.406 98.6752 253.155 99.378 255.683 99.3764C258.694 99.3764 260.54 98.4935 261.221 96.7277C261.901 94.962 262.242 93.6241 262.242 92.7142C262.231 91.9679 262.28 91.222 262.388 90.4835V64.3939C262.401 63.241 262.328 62.0888 262.17 60.9468C262.025 59.9961 261.66 58.9839 261.077 57.9101Z" fill="#7d12ff"/>
<path d="M286.648 105.556C285.966 104.323 285.527 102.971 285.354 101.573C285.152 99.9532 285.056 98.3217 285.067 96.689V88.571C285.067 83.2612 286.337 79.3034 288.877 76.6976C291.417 74.0918 293.718 72.3136 295.78 71.3629C297.841 70.4114 300.31 69.9348 303.186 69.9332H312.389V63.7539C312.406 62.5956 312.333 61.4377 312.172 60.2905C312.029 59.3865 311.426 58.2308 310.366 56.8235C309.305 55.4162 307.861 54.7126 306.032 54.7126C304.107 54.7126 302.47 55.3571 301.12 56.6463C299.77 57.9355 298.952 59.6198 298.666 61.6991H285.067C285.067 55.8836 287.046 50.8933 291.004 46.728C294.963 42.5627 299.756 40.4834 305.385 40.49C310.917 40.49 315.734 42.5527 319.836 46.6781C323.938 50.8034 325.989 55.8354 325.988 61.7739V113.231H312.389V105.995C310.951 108.459 309.153 110.406 306.995 111.835C304.837 113.264 302.416 113.979 299.734 113.979C293.692 113.975 289.33 111.167 286.648 105.556ZM298.666 88.4549V92.073C298.666 93.9859 299.323 95.7222 300.637 97.2817C301.951 98.8411 303.679 99.6209 305.82 99.6209C306.977 99.6249 308.113 99.3121 309.105 98.7164C310.109 98.1295 310.921 97.2624 311.44 96.2212C311.974 95.1649 312.265 93.8063 312.313 92.1453C312.362 90.4843 312.387 89.3012 312.388 88.5959V81.6518H307.14C304.609 81.6518 302.566 82.1554 301.008 83.1626C299.45 84.1699 298.669 85.934 298.666 88.4549Z" fill="#7d12ff"/>
<path d="M336.154 141.67V41.3633H349.752V48.3723C351.135 46.0161 353.06 44.0235 355.366 42.5598C357.594 41.1198 360.192 40.3583 362.845 40.3677C366.87 40.3677 370.249 41.948 372.981 45.1086C375.713 48.2692 377.08 52.0086 377.081 56.3269V97.5848C377.081 99.6941 376.889 101.527 376.506 103.083C376.122 104.639 374.924 106.822 372.911 109.633C370.898 112.443 367.638 113.848 363.131 113.848C357.092 113.848 352.635 111.181 349.759 105.845V141.67H336.154ZM356.614 54.7126C354.472 54.7126 352.793 55.4931 351.578 57.0543C350.362 58.6154 349.754 60.5039 349.752 62.7196V91.5003C349.752 93.8508 350.335 95.7725 351.499 97.2654C352.663 98.7584 354.562 99.5044 357.195 99.5036C359.92 99.5036 361.647 98.6448 362.377 96.9273C363.105 95.2111 363.478 93.3648 363.472 91.5003V62.7196C363.472 60.5055 362.864 58.6179 361.648 57.0568C360.432 55.4956 358.754 54.7142 356.614 54.7126Z" fill="#7d12ff"/>
<path d="M386.155 26.7665V12.5439H399.753V26.7665H386.155ZM386.155 113.225V40.8643H399.753V113.225H386.155Z" fill="#7d12ff"/>
<path d="M410.191 141.67V41.3633H423.789V48.3723C425.172 46.015 427.096 44.0214 429.404 42.5573C431.631 41.1173 434.229 40.3558 436.882 40.3653C440.908 40.3653 444.287 41.9455 447.018 45.1061C449.75 48.2667 451.114 52.007 451.112 56.327V97.5848C451.112 99.6941 450.92 101.527 450.537 103.083C450.153 104.639 448.955 106.822 446.942 109.633C444.929 112.443 441.669 113.848 437.162 113.848C431.123 113.848 426.666 111.181 423.789 105.845V141.67H410.191ZM430.651 54.7126C428.509 54.7126 426.829 55.4932 425.613 57.0543C424.397 58.6155 423.789 60.5039 423.789 62.7196V91.5003C423.789 93.8508 424.372 95.7725 425.536 97.2654C426.7 98.7584 428.599 99.5045 431.233 99.5036C433.957 99.5036 435.684 98.6449 436.414 96.9273C437.142 95.2111 437.515 93.3648 437.509 91.5003V62.7196C437.509 60.5056 436.901 58.6179 435.684 57.0568C434.467 55.4956 432.79 54.7142 430.651 54.7126Z" fill="#7d12ff"/>
<path d="M479.173 99.3763C481.195 99.3763 482.832 98.721 484.083 97.4101C485.334 96.0993 486.105 94.3843 486.396 92.2651H499.995V93.9244C499.98 96.2034 499.518 98.4572 498.634 100.558C497.727 102.769 495.843 105.557 492.982 108.924C490.121 112.291 485.638 113.974 479.534 113.973C475.625 113.973 472.024 112.869 468.73 110.662C465.437 108.455 463.171 106.02 461.935 103.357C460.695 100.696 459.909 98.2872 459.574 96.1314C459.243 94.0132 459.076 91.8726 459.075 89.7287V62.4701C459.075 56.5482 461.102 51.4031 465.155 47.0349C469.208 42.6666 474.05 40.485 479.682 40.49C485.504 40.49 490.344 42.6201 494.204 46.8802C498.063 51.1403 499.995 56.3269 500 62.4401V82.2843H472.678V93.0236C472.678 94.5365 473.376 95.9737 474.771 97.3353C476.167 98.6968 477.634 99.3772 479.173 99.3763ZM479.534 54.7125C477.685 54.7125 476.078 55.3605 474.715 56.6563C473.352 57.9521 472.671 60.244 472.673 63.5318V70.557H486.396V63.5318C486.396 60.9409 485.861 58.8234 484.789 57.179C483.718 55.5347 481.966 54.7125 479.534 54.7125Z" fill="#7d12ff"/>
</svg>