<?xml version="1.0" encoding="UTF-8"?>
<svg xmlns="http://www.w3.org/2000/svg" id="Layer_1" viewBox="0 0 922.1 160.1">
  <defs>
    <style>.cls-1{fill:#fff;}.cls-2{fill:#37c573;}.cls-2,.cls-3,.cls-4,.cls-5,.cls-6,.cls-7,.cls-8,.cls-9,.cls-10,.cls-11,.cls-12,.cls-13,.cls-14,.cls-15{fill-rule:evenodd;}.cls-3{fill:#2fbf71;}.cls-4{fill:#2fbe70;}.cls-5{fill:#33c172;}.cls-6{fill:#48d27a;}.cls-7{fill:#58df80;}.cls-8{fill:#3bc875;}.cls-9{fill:#54db7f;}.cls-10{fill:#60e684;}.cls-11{fill:#5ce281;}.cls-12{fill:#50d87d;}.cls-13{fill:#4cd57c;}.cls-14{fill:#43ce78;}.cls-15{fill:#3fcb77;}</style>
  </defs>
  <path class="cls-1" d="M267.6,88.1h-10.6c-.5,0-1,.3-1.1,.8-2,7-7.4,10.7-15.6,10.7-10.8,0-17.6-8.1-17.6-21.1s6.7-20.8,17.6-20.8c7.9,0,13.6,3.9,15.6,10.7,.1,.5,.6,.8,1.1,.8h10.6c.4,0,.7-.2,.9-.4,.2-.3,.3-.7,.2-1-3.2-13.2-13.5-20.8-28.3-20.8-17.9,0-29.9,12.6-29.9,31.5s12,31.7,29.9,31.7c14.4,0,25-7.7,28.3-20.6,0-.1,.1-.3,.1-.4-.1-.6-.6-1.1-1.2-1.1Z"></path>
  <path class="cls-1" d="M306.8,47c-7.6,0-14,2.6-18.3,7.2V28.6c0-.6-.5-1.2-1.2-1.2h-9.8c-.6,0-1.2,.5-1.2,1.2V108c0,.6,.5,1.2,1.2,1.2h9.8c.6,0,1.2-.5,1.2-1.2v-32.5c0-11.2,5.7-17.7,15.7-17.7s15.3,6.2,15.3,17v33.2c0,.6,.5,1.2,1.2,1.2h9.7c.6,0,1.2-.5,1.2-1.2v-34.6c-.1-16-9.8-26.4-24.8-26.4Z"></path>
  <path class="cls-1" d="M371.9,47c-7.6,0-13.8,2.7-17.8,7.8v-5.5c0-.6-.5-1.2-1.2-1.2h-9.8c-.6,0-1.2,.5-1.2,1.2v58.8c0,.6,.5,1.2,1.2,1.2h9.8c.6,0,1.2-.5,1.2-1.2,0-.1,0-.2-.1-.4v-31.6c0-11.4,4.9-16.6,15.3-16.6h2.6c.6,0,1.2-.5,1.2-1.2v-10.1c-.1-.6-.6-1.2-1.2-1.2Z"></path>
  <path class="cls-1" d="M424,78.6c0,14.3-9.6,20.7-19.1,20.7-5,0-9.4-1.8-12.6-5-3.6-3.7-5.6-9.1-5.5-15.8,0-9.5,4.8-20.6,18.5-20.6,9.3,.1,18.7,6.5,18.7,20.7Zm-18.6-31.5c-18.2,0-31,12.9-31,31.5s12.5,31.7,30.5,31.7,31.3-13.3,31.4-31.7c.1-18.6-12.7-31.5-30.9-31.5Z"></path>
  <path class="cls-1" d="M473.8,47.1c-7.3,0-13.5,2.6-17.7,7.1v-4.9c0-.6-.5-1.2-1.2-1.2h-9.8c-.6,0-1.2,.5-1.2,1.2v58.8c0,.6,.5,1.2,1.2,1.2h9.8c.6,0,1.2-.5,1.2-1.2v-32.5c0-11.2,5.7-17.7,15.7-17.7s15.3,6.2,15.3,17v33.3c0,.6,.5,1.2,1.2,1.2h9.7c.6,0,1.2-.5,1.2-1.2v-34.6c-.1-16.4-9.8-26.5-25.4-26.5Z"></path>
  <path class="cls-1" d="M537.6,58c9.3,0,18.7,6.4,18.7,20.6s-9.6,20.7-19.1,20.7c-5,0-9.4-1.8-12.6-5-3.6-3.7-5.6-9.1-5.5-15.8,0-9.4,4.9-20.5,18.5-20.5Zm.1-10.9c-18.2,0-31,12.9-31,31.5s12.5,31.7,30.5,31.7,31.3-13.3,31.4-31.7c.1-18.6-12.6-31.5-30.9-31.5Z"></path>
  <path class="cls-1" d="M601.3,73.9c-7.4-2-13.7-3.8-13.7-9.2,0-4.2,4.1-7,10.3-7,6.8,0,11.2,3.5,11.6,9.1,0,.6,.6,1.1,1.2,1.1h9.8c.3,0,.6-.1,.9-.4,.2-.2,.3-.6,.3-.9-.7-12.1-9.7-19.6-23.4-19.6s-22.8,7.4-22.8,17.6c0,13.3,12,16.5,21.6,19,7.1,1.9,13.2,3.5,13.2,8.3s-4.3,7.5-10.9,7.5c-7.2,0-12.2-3.5-12.7-8.9-.1-.6-.6-1.1-1.2-1.1h-10.1c-.3,0-.6,.1-.9,.4-.2,.2-.3,.6-.3,.9,.7,11.4,11.1,19.4,25.3,19.4,13.3,0,22.7-7.5,22.7-18.2-.2-12.3-11.7-15.5-20.9-18Z"></path>
  <path class="cls-1" d="M679.6,78.5c0,12.3-7.7,20.8-18.8,20.8-9.1,0-18.8-6.5-18.8-20.7,0-10.2,6.5-20.6,18.8-20.6,11.1,0,18.8,8.4,18.8,20.5Zm-16.8-31.4c-9.8,0-16.8,4.4-20.9,9.3v-7.1c0-.6-.5-1.2-1.2-1.2h-9.8c-.6,0-1.2,.5-1.2,1.2v86.7c0,.6,.5,1.2,1.2,1.2h9.8c.6,0,1.2-.5,1.2-1.2v-35.1c4.2,4.9,11.3,9.4,20.9,9.4,16.9,0,29.1-13.4,29.1-31.8,.1-18.5-11.9-31.4-29.1-31.4Z"></path>
  <path class="cls-1" d="M730,47c-7.6,0-14,2.6-18.3,7.2V28.6c0-.6-.5-1.2-1.2-1.2h-9.8c-.6,0-1.2,.5-1.2,1.2V108c0,.6,.5,1.2,1.2,1.2h9.8c.6,0,1.2-.5,1.2-1.2v-32.5c0-11.2,5.7-17.7,15.7-17.7s15.3,6.2,15.3,17v33.2c0,.6,.5,1.2,1.2,1.2h9.7c.6,0,1.2-.5,1.2-1.2v-34.6c-.1-16-9.8-26.4-24.8-26.4Z"></path>
  <path class="cls-1" d="M792.2,57.8c5.2,0,9.9,1.8,13.1,5,2.7,2.7,4.2,6.3,4.4,10.5h-34.7c1.4-9.5,8-15.5,17.2-15.5Zm.5-10.7c-18.1,0-30.3,12.6-30.3,31.5s12.2,31.7,30.3,31.7c14,0,24.8-7.7,28.3-20,.1-.4,0-.7-.2-1s-.6-.5-.9-.5h-10.6c-.5,0-.9,.3-1.1,.8-2.2,6.4-7.8,10.1-15.5,10.1-9.8,0-16.7-6.3-17.8-16.1h45.8c.6,0,1.1-.5,1.2-1,.2-2.2,.3-4,.3-6,0-17.5-12.1-29.5-29.5-29.5Z"></path>
  <path class="cls-1" d="M859.7,47c-7.6,0-13.8,2.7-17.8,7.8v-5.5c0-.6-.5-1.2-1.2-1.2h-9.8c-.6,0-1.2,.5-1.2,1.2v58.8c0,.6,.5,1.2,1.2,1.2h9.8c.6,0,1.2-.5,1.2-1.2,0-.1,0-.2-.1-.4v-31.6c0-11.4,4.9-16.6,15.3-16.6h2.6c.6,0,1.2-.5,1.2-1.2v-10.1c0-.6-.5-1.2-1.2-1.2Z"></path>
  <path class="cls-1" d="M892.2,57.8c5.2,0,9.9,1.8,13.1,5,2.7,2.7,4.2,6.3,4.4,10.5h-34.7c1.3-9.5,7.9-15.5,17.2-15.5Zm.4-10.7c-18.1,0-30.3,12.6-30.3,31.5s12.2,31.7,30.3,31.7c14,0,24.8-7.7,28.3-20,.1-.4,0-.7-.2-1s-.6-.5-.9-.5h-10.6c-.5,0-.9,.3-1.1,.8-2.2,6.4-7.8,10.1-15.5,10.1-9.8,0-16.7-6.3-17.8-16.1h45.8c.6,0,1.1-.5,1.2-1,.2-2.2,.3-3.9,.3-6,0-17.5-12.1-29.5-29.5-29.5Z"></path>
  <path class="cls-3" d="M80,0c37.6,0,69.2,26,77.7,61-5.5-7.8-14.6-12.9-24.9-12.9-16.8,0-30.5,13.6-30.5,30.5s13.6,30.5,30.5,30.5c10.9,0,20.4-5.7,25.8-14.2-6.9,37.1-39.5,65.2-78.6,65.2C35.8,160.1,0,124.3,0,80.1S35.9,0,80,0Z"></path>
  <path class="cls-4" d="M82.4,160C43.5,153.4,13.8,120.1,13.8,80S43.4,6.7,82.4,0c36.6,1.1,67,26.7,75.4,61-5.5-7.8-14.6-12.9-24.9-12.9-16.8,0-30.5,13.6-30.5,30.5s13.6,30.5,30.5,30.5c10.9,0,20.4-5.7,25.8-14.2-6.8,36.3-38.2,64-76.3,65.1Z"></path>
  <path class="cls-5" d="M95.5,158.5c-43.8-.6-79.1-35.5-79.1-78.5S51.7,2.1,95.5,1.5c30.6,6,54.9,29.4,62.2,59.5-5.5-7.8-14.6-12.9-24.9-12.9-16.8,0-30.5,13.6-30.5,30.5s13.6,30.5,30.5,30.5c10.9,0,20.4-5.7,25.8-14.2-5.9,32-31.1,57.4-63.1,63.6Z"></path>
  <path class="cls-2" d="M96.7,4.2c3.7,0,7.4,.3,11,.8,24.7,9.1,43.7,30.1,50,56.1-5.5-7.8-14.6-12.9-24.9-12.9-16.8,0-30.5,13.6-30.5,30.5s13.6,30.5,30.5,30.5c10.9,0,20.4-5.7,25.8-14.2-5.2,27.9-24.9,50.6-50.9,60.3-3.6,.5-7.3,.8-11,.8-42.8,0-77.5-34-77.5-75.8S53.9,4.2,96.7,4.2Z"></path>
  <path class="cls-8" d="M96.7,6.9c7.8,0,15.3,1.2,22.3,3.3,19.1,10.7,33.4,29,38.7,50.9-5.5-7.8-14.6-12.9-24.9-12.9-16.8,0-30.5,13.6-30.5,30.5s13.6,30.5,30.5,30.5c10.9,0,20.4-5.7,25.8-14.2-4.4,23.7-19.3,43.7-39.6,55.1-7.1,2.2-14.6,3.3-22.3,3.3-41.4,0-74.9-32.8-74.9-73.2S55.3,6.9,96.7,6.9Z"></path>
  <path class="cls-15" d="M96.7,9.5c11.9,0,23.1,2.8,33,7.8,13.7,10.9,23.8,26.2,28.1,43.7-5.5-7.8-14.6-12.9-24.9-12.9-16.8,0-30.5,13.6-30.5,30.5s13.6,30.5,30.5,30.5c10.9,0,20.4-5.7,25.8-14.2-3.6,19.3-14.2,36.2-29,47.9-9.9,5-21.1,7.8-33,7.8-39.9,0-72.2-31.6-72.2-70.5S56.8,9.5,96.7,9.5Z"></path>
  <path class="cls-14" d="M96.7,12.2c16.2,0,31.1,5.4,42.9,14.4,8.6,9.6,15,21.4,18.2,34.4-5.5-7.8-14.6-12.9-24.9-12.9-16.8,0-30.5,13.6-30.5,30.5s13.6,30.5,30.5,30.5c10.9,0,20.4-5.7,25.8-14.2-2.7,14.7-9.5,27.9-19.1,38.6-11.8,9.1-26.7,14.4-42.9,14.4-38.4,0-69.5-30.4-69.5-67.9S58.3,12.2,96.7,12.2Z"></path>
  <path class="cls-6" d="M96.7,14.9c21.1,0,39.9,9.5,52.2,24.4,4,6.7,7,14,8.9,21.8-5.5-7.8-14.6-12.9-24.9-12.9-16.8,0-30.5,13.6-30.5,30.5s13.6,30.5,30.5,30.5c10.9,0,20.4-5.7,25.8-14.2-1.7,9.3-5.1,18.1-9.8,25.9-12.3,14.9-31.1,24.4-52.2,24.4-36.9,0-66.9-29.2-66.9-65.2S59.8,14.9,96.7,14.9Z"></path>
  <path class="cls-13" d="M96.7,17.5c28.1,0,52,17.6,60.7,42.1,.1,.5,.2,.9,.4,1.4-5.5-7.8-14.6-12.9-24.9-12.9-16.8,0-30.5,13.6-30.5,30.5s13.6,30.5,30.5,30.5c10.9,0,20.4-5.7,25.8-14.2-.4,1.9-.8,3.8-1.3,5.6-8.7,24.5-32.6,42.1-60.7,42.1-35.5,0-64.2-28-64.2-62.5S61.2,17.5,96.7,17.5Z"></path>
  <path class="cls-12" d="M96.7,20.2c25.1,0,46.6,14.6,56.2,35.5-5.4-4.7-12.4-7.5-20-7.5-16.8,0-30.5,13.6-30.5,30.5s13.6,30.5,30.5,30.5c8.6,0,16.4-3.6,21.9-9.3-8.4,23.4-31.2,40.1-58.1,40.1-34,0-61.6-26.8-61.6-59.9S62.7,20.2,96.7,20.2Z"></path>
  <path class="cls-9" d="M96.7,22.8c22.1,0,41.4,11.9,51.5,29.4-4.5-2.6-9.7-4.1-15.3-4.1-16.8,0-30.5,13.6-30.5,30.5s13.6,30.5,30.5,30.5c6.5,0,12.5-2,17.5-5.5-9.2,19.9-29.8,33.7-53.7,33.7-32.5,0-58.9-25.6-58.9-57.2s26.4-57.3,58.9-57.3Z"></path>
  <path class="cls-7" d="M96.7,25.5c19.7,0,37,9.8,47,24.6-3.4-1.3-7-2-10.8-2-16.8,0-30.5,13.6-30.5,30.5s13.6,30.5,30.5,30.5c4.7,0,9.2-1.1,13.2-3-9.5,17-28.1,28.5-49.4,28.5-31.1,0-56.2-24.4-56.2-54.5,0-30.2,25.1-54.6,56.2-54.6Z"></path>
  <path class="cls-11" d="M96.7,28.2c17.5,0,33.1,8.1,42.8,20.7-2.1-.5-4.3-.7-6.6-.7-16.8,0-30.5,13.6-30.5,30.5s13.6,30.5,30.5,30.5c3.2,0,6.2-.5,9.1-1.4-9.5,14.6-26.2,24.2-45.3,24.2-29.6,0-53.6-23.2-53.6-51.9s24-51.9,53.6-51.9Z"></path>
  <path class="cls-10" d="M96.7,30.8c15.6,0,29.5,6.8,38.9,17.4-.9-.1-1.8-.1-2.7-.1-16.8,0-30.5,13.6-30.5,30.5s13.6,30.5,30.5,30.5c1.8,0,3.5-.2,5.2-.4-9.2,12.5-24.3,20.6-41.4,20.6-28.1,0-50.9-22-50.9-49.2s22.8-49.3,50.9-49.3Z"></path>
</svg>
