<svg width="500" height="207" viewBox="0 0 500 207" fill="none" xmlns="http://www.w3.org/2000/svg">
<g clip-path="url(#clip0_7023_81)">
<path fill-rule="evenodd" clip-rule="evenodd" d="M228.314 125.601C225.872 127.069 219.447 127.707 216.282 127.707C207.42 127.707 202.085 123.037 202.085 115.064V74.5904L196.835 74.0372V62.4095H218.409V110.67C218.409 113.42 220 114.612 223.159 114.612H226.505L228.314 125.601Z" fill="white"/>
<path fill-rule="evenodd" clip-rule="evenodd" d="M326.542 92.5425C328.271 94.3138 328.729 96.5585 328.729 98.7925C328.729 108.585 321.718 113.718 305.51 113.718C303.234 113.718 299.404 113.436 299.319 113.436C298.388 113.436 298.191 113.984 298.128 114.197C297.495 116.42 299.234 116.75 303.702 117.548L316.526 119.495C327.186 121.17 329.819 126.303 329.819 132.739C329.819 141.138 325.362 147.293 305.058 147.293C297.963 147.293 290.032 146.452 283.394 145.33V133.952C291.399 134.601 297.761 135.16 305.229 135.16C311.33 135.16 313.633 134.968 313.633 132.638C313.723 130.771 311.569 130.223 306.803 129.415L295.042 127.516C287.399 126.112 285.122 121.633 285.303 117.346C285.388 114.734 286.665 112.213 288.851 110.628C284.032 108.016 281.835 103.729 281.835 97.6595C281.835 85.5372 290.489 81.9946 305.691 81.9946H335.351V92.5319H326.537L326.542 92.5425ZM310.979 92.5425H305.606C300.505 92.5425 298.867 93.7553 298.867 98.0478C298.867 102.34 300.691 104.112 305.606 104.112C310.521 104.112 312.159 102.245 312.159 97.9574C312.159 95.3404 311.707 93.6648 310.979 92.5425Z" fill="white"/>
<path fill-rule="evenodd" clip-rule="evenodd" d="M427.394 82.0052H414.059V96.3191H419.559V127.713H436.096V82.0052H427.394Z" fill="white"/>
<path fill-rule="evenodd" clip-rule="evenodd" d="M425.032 59.1489C429.675 59.1489 432.946 62.5585 432.946 67.3564C432.946 72.1542 429.675 75.4734 425.032 75.4734C420.388 75.4734 417.207 72.0585 417.207 67.3564C417.207 62.6542 420.473 59.1489 425.032 59.1489" fill="white"/>
<path fill-rule="evenodd" clip-rule="evenodd" d="M399.851 111.388C404.495 111.388 407.766 114.798 407.766 119.596C407.766 124.394 404.495 127.713 399.851 127.713C395.208 127.713 392.021 124.298 392.021 119.596C392.021 114.894 395.293 111.388 399.851 111.388Z" fill="white"/>
<path fill-rule="evenodd" clip-rule="evenodd" d="M255.021 116.75C249.287 116.75 245.181 112.457 245.181 106.548C245.181 100.638 249.287 96.2287 255.021 96.2287C260.755 96.2287 264.968 100.516 264.968 106.548C264.968 112.58 260.857 116.75 255.021 116.75ZM254.947 82.0052C241.271 82.0052 231.463 92.2393 231.463 106.633C231.463 121.027 241.271 130.979 254.947 130.979C268.622 130.979 278.686 120.745 278.686 106.633C278.686 92.5212 268.878 82.0052 254.947 82.0052" fill="white"/>
<path fill-rule="evenodd" clip-rule="evenodd" d="M465.947 116.75C460.213 116.75 456.106 112.457 456.106 106.548C456.106 100.638 460.218 96.2287 465.947 96.2287C471.675 96.2287 475.894 100.516 475.894 106.548C475.894 112.58 471.787 116.75 465.947 116.75ZM465.878 82.0052C452.202 82.0052 442.394 92.2393 442.394 106.633C442.394 121.027 452.202 130.979 465.878 130.979C479.553 130.979 489.617 120.739 489.617 106.633C489.617 92.5265 479.808 82.0052 465.878 82.0052Z" fill="white"/>
<path fill-rule="evenodd" clip-rule="evenodd" d="M379.426 127.707H338.5V116.394L361.532 93.2233H341.287V82.0052H379V93.2233L356.138 116.394L368.383 116.489V110.883H379.426V127.713V127.707Z" fill="white"/>
<path d="M173.702 58.1276C173.675 57.8936 173.643 57.6915 173.59 57.5319C173.532 57.3617 173.436 57.2074 173.34 57.0425C173.25 56.883 173.165 56.7287 173.037 56.5851C172.915 56.4415 172.755 56.3245 172.574 56.1808L172.25 55.8883L94.3349 10.8989C93.4147 10.3617 92.2817 10.367 91.3669 10.8989L13.3775 55.9149C13.0956 56.1489 12.9679 56.2872 12.8349 56.4255C12.6115 56.6542 12.4892 56.7766 12.42 56.8776L12.1913 57.367C12.0903 57.5957 12.0264 57.7766 11.9945 57.9468C11.9573 58.133 11.9626 58.3138 11.9626 58.5C11.9626 58.734 11.9679 58.8989 11.9998 59.0479C12.0424 59.2659 12.1222 59.4468 12.202 59.6383L12.303 59.9468C12.3296 59.9787 12.3722 60.0319 12.4147 60.0957C12.5264 60.2659 12.6647 60.3883 12.7977 60.5213C13.0158 60.734 13.1435 60.8617 13.2552 60.9362L13.5903 61.2234L89.8775 104.676V143.41L15.3615 100.372C14.9998 100.25 14.8615 100.218 14.7286 100.181C14.4041 100.09 14.186 100.037 14.0052 100.027L13.7764 100L13.4839 100.069C13.2817 100.096 13.0796 100.128 12.8775 100.202C12.7126 100.261 12.5637 100.346 12.4094 100.431C12.202 100.553 12.0637 100.649 11.9413 100.755C11.7817 100.899 11.6647 101.053 11.5371 101.218L11.2552 101.532C11.1754 101.798 11.1275 101.995 11.069 102.218C11.0052 102.468 10.9679 102.644 10.9573 102.803L10.8828 103.223L11.0424 148.426C11.0637 149.457 11.6328 150.415 12.5264 150.931L91.3562 195.558C92.2605 196.085 93.4254 196.08 94.319 195.558L172.303 150.532C173.218 150.005 173.787 149.021 173.787 147.963V58.484C173.745 58.4255 173.713 58.2925 173.697 58.1542V58.1276H173.702ZM60.5052 81.0851L92.8669 61.9202L125.404 80.7127L92.8349 99.5159L60.5052 81.0851ZM128.372 85.8564V124.048L95.8083 143.335V104.66L128.372 85.8617V85.8564ZM167.856 146.255L92.8403 189.564L92.1594 189.17L16.9466 146.617L16.9573 108.144L91.8084 151.277C92.6328 151.58 93.053 151.58 93.8562 151.282L94.3881 151.064L132.856 128.293C133.75 127.761 134.308 126.782 134.308 125.734V80.7127C134.308 80.4734 134.276 80.2234 134.207 79.9574C134.133 79.6649 133.989 79.3723 133.76 79.0425C133.335 78.5159 133.08 78.2872 132.824 78.1383L94.3296 55.9149C93.4147 55.383 92.2658 55.3883 91.3243 55.9362L54.569 77.7021L20.8243 58.4681L92.8456 16.8883L93.5264 17.2819L167.862 60.2021V146.255H167.856Z" fill="white"/>
</g>
<defs>
<clipPath id="clip0_7023_81">
<rect width="478.723" height="185.106" fill="white" transform="translate(10.6382 10.6383)"/>
</clipPath>
</defs>
</svg>
